<?xml version="1.0" encoding="utf-8"?>
<!-- Svg Vector Icons : http://www.onlinewebfonts.com/icon -->
<!DOCTYPE svg PUBLIC "-//W3C//DTD SVG 1.1//EN" "http://www.w3.org/Graphics/SVG/1.1/DTD/svg11.dtd">
<svg version="1.1"  xmlns="http://www.w3.org/2000/svg" xmlns:xlink="http://www.w3.org/1999/xlink" x="0px" y="0px" viewBox="0 0 1000 1000" enable-background="new 0 0 1000 1000" xml:space="preserve">
<metadata> Svg Vector Icons : http://www.onlinewebfonts.com/icon </metadata>
<g  style="fill: #48ae2c"><g transform="translate(0.000000,512.000000) scale(0.100000,-0.100000)"><path d="M4621,5016.4c-1005.8-103.5-1825.8-415.7-2590.3-986.7c-241.4-180.1-762.5-701.2-942.6-942.6C568.9,2389.8,250.9,1613.8,124.4,726.8c-32.6-226.1-32.6-980.9,0-1207c126.5-889,446.4-1672.6,965.6-2360.4c180.1-239.5,546-618.8,795.1-823.8c986.7-812.3,2285.6-1214.7,3540.5-1097.8C6563.7-4655,7581-4187.5,8403-3392.4c852.6,827.7,1366,1896.7,1477.1,3084.6C9997,947.1,9594.6,2246.1,8782.3,3232.8c-779.8,946.5-1862.2,1557.6-3098,1747.3C5490.8,5008.8,4789.6,5033.7,4621,5016.4z M5147.9,2341.9c34.5-24.9,82.4-69,103.5-97.7l40.2-53.7V123.3V-1944l-40.2-53.7c-69-92-157.1-139.9-258.6-139.9c-82.4,0-195.4,51.7-1055.7,482.8L2973.3-1170l-517.3,9.6c-503.9,9.6-519.2,11.5-580.5,53.6c-134.1,95.8-128.4,47.9-128.4,1230s-5.7,1134.2,128.4,1230c61.3,42.1,76.6,44.1,580.5,53.6l517.3,9.6l963.7,484.7c860.2,431.1,973.3,482.8,1055.7,482.8C5055.9,2384,5103.8,2370.6,5147.9,2341.9z M6092.4,1385.8c23-11.5,226.1-203.1,448.3-425.3l408.1-406.2L7355,960.5c224.2,222.2,433,415.7,461.7,425.3c235.7,90.1,471.3-109.2,415.8-350.6c-13.4-63.2-82.4-139.9-434.9-494.3l-417.7-417.7l413.8-415.8c459.8-461.7,480.9-494.3,438.7-649.5c-53.6-189.7-275.9-281.6-450.2-183.9c-21.1,11.5-214.6,197.4-431.1,413.8l-390.8,394.7L6556-717.8c-220.3-218.4-423.4-410-448.3-423.4c-63.2-32.6-212.7-28.7-283.6,7.7c-118.8,61.3-178.2,199.2-149.4,350.6c11.5,61.3,72.8,134.1,427.2,488.5l413.8,417.7L6102,540.9c-442.6,444.5-457.9,467.5-429.2,624.6C5707.3,1343.7,5937.2,1464.4,6092.4,1385.8z"/></g></g>
</svg>